# xmcd
#
# Track frame offsets: 
#        150
#        15444
#        28934
#        47420
#        72278
#        91358
#        109895
#        129178
#        152879
#        171861
#        194552
#        214700
#        232408
#
# Disc length: 3356 seconds
#
# Revision: 0
# Processed by: cddbd v1.5.2PL0 Copyright (c) Steve Scherf et al.
# Submitted via: ExactAudioCopyFreeDBPlugin 1.0
#
DISCID=b30d1a0d
DTITLE=Danceperados Of Ireland - Spirit Of Irish Christmas
DYEAR=2018
DGENRE=Celtic
TTITLE0=Love came down at Christmas
TTITLE1=An Irish Christmas
TTITLE2=This Christmas Night
TTITLE3=Amhran Na Leabhar
TTITLE4=Step Back In Time
TTITLE5=God Rest You Merry Gentlemen
TTITLE6=The Wren Boys Set
TTITLE7=Fairytal Of New York
TTITLE8=The Harsh Winter Set
TTITLE9=Slan Abhaile
TTITLE10=Under The Tree
TTITLE11=Wexford CArol
TTITLE12=All Around The House Set
EXTD=
EXTT0=
EXTT1=
EXTT2=
EXTT3=
EXTT4=
EXTT5=
EXTT6=
EXTT7=
EXTT8=
EXTT9=
EXTT10=
EXTT11=
EXTT12=
PLAYORDER=
